<svg xmlns="http://www.w3.org/2000/svg" viewBox="0 0 480 120" width="480" height="120">
  <defs>
    <linearGradient id="g" x1="0%" y1="0%" x2="100%" y2="0%">
      <stop offset="0%" style="stop-color:#2563eb"/>
      <stop offset="100%" style="stop-color:#7c3aed"/>
    </linearGradient>
  </defs>
  <rect width="480" height="120" rx="16" fill="#0f172a"/>
  <rect x="24" y="24" width="72" height="72" rx="8" fill="url(#g)" opacity="0.9"/>
  <rect x="32" y="32" width="12" height="12" rx="2" fill="#fff" opacity="0.9"/>
  <rect x="48" y="32" width="12" height="12" rx="2" fill="#fff" opacity="0.7"/>
  <rect x="64" y="32" width="12" height="12" rx="2" fill="#fff" opacity="0.5"/>
  <rect x="32" y="48" width="12" height="12" rx="2" fill="#fff" opacity="0.7"/>
  <rect x="48" y="48" width="12" height="12" rx="2" fill="#fff" opacity="0.9"/>
  <rect x="64" y="48" width="12" height="12" rx="2" fill="#fff" opacity="0.6"/>
  <rect x="32" y="64" width="12" height="12" rx="2" fill="#fff" opacity="0.5"/>
  <rect x="48" y="64" width="12" height="12" rx="2" fill="#fff" opacity="0.6"/>
  <rect x="64" y="64" width="12" height="12" rx="2" fill="#fff" opacity="0.9"/>
  <rect x="80" y="32" width="8" height="56" rx="2" fill="#fff" opacity="0.3"/>
  <text x="116" y="58" font-family="system-ui,-apple-system,sans-serif" font-size="22" font-weight="700" fill="#f8fafc">AAMVA PDF417</text>
  <text x="116" y="84" font-family="system-ui,-apple-system,sans-serif" font-size="16" font-weight="400" fill="#94a3b8">Barcode Generator</text>
  <text x="380" y="58" font-family="system-ui,-apple-system,sans-serif" font-size="13" font-weight="600" fill="#7c3aed">v3.0</text>
  <text x="380" y="84" font-family="system-ui,-apple-system,sans-serif" font-size="11" fill="#64748b">51 States</text>
</svg>
